Coordinates
version=1
nRows=13
nColumns=36
inDegrees=yes

Units are S.I. units (second, meters, Newtons, ...)
If the header above contains a line with 'inDegrees', this indicates whether rotational values are in degrees (yes) or radians (no).

endheader
time	pelvis_tilt	pelvis_list	pelvis_rotation	pelvis_tx	pelvis_ty	pelvis_tz	hip_flexion_r	hip_adduction_r	hip_rotation_r	knee_angle_r	knee_angle_r_beta	ankle_angle_r	subtalar_angle_r	mtp_angle_r	hip_flexion_l	hip_adduction_l	hip_rotation_l	knee_angle_l	knee_angle_l_beta	ankle_angle_l	subtalar_angle_l	mtp_angle_l	lumbar_extension	lumbar_bending	lumbar_rotation	arm_flex_r	arm_add_r	arm_rot_r	elbow_flex_r	pro_sup_r	arm_flex_l	arm_add_l	arm_rot_l	elbow_flex_l	pro_sup_l
      3.01250000	    -14.72550488	      1.32828574	     -1.88683005	      0.13801008	      0.53979534	     -0.09179074	     93.00955654	     -7.90226300	      7.85576157	    114.51016449	      1.99857940	     39.07783957	     -0.03387978	     -7.49999987	     96.56282436	     -6.05687555	      3.60088459	    117.71399276	      2.05449675	     32.31665091	      2.25849231	     -7.49999987	    -50.01718895	      1.28733647	      0.52397067	     74.72925797	    -36.46262340	     31.81600923	     90.65157341	    101.93855399	     86.39126182	    -27.54458542	     41.09066864	     72.81069953	     94.27598853
      3.01666670	    -15.11158929	      1.28126580	     -1.93124727	      0.14656623	      0.53819412	     -0.09386839	     93.03359328	     -7.64666731	      7.93789519	    114.85845109	      2.00465815	     39.61936384	     -0.13680772	     -7.49999987	     96.89416455	     -6.30280680	      3.75611760	    118.10196018	      2.06126806	     32.70310661	      3.02919789	     -7.49999987	    -49.41144652	      1.38472900	      0.58688187	     74.91378552	    -36.54177194	     32.73238276	     90.74880792	    102.26653590	     86.66813090	    -27.43115866	     42.19340797	     72.48677311	     94.74383012
      3.02083330	    -15.16701719	      1.31046769	     -1.85746863	      0.14474809	      0.53668885	     -0.09198600	     92.92961137	     -7.47071317	      8.04422246	    115.11430302	      2.00912360	     39.83431100	     -0.45259033	     -7.49999987	     96.94901091	     -6.34335241	      3.76287886	    118.34625209	      2.06553176	     32.75495354	      3.07761625	     -7.49999987	    -49.30513335	      1.39301463	      0.50395728	     75.16104833	    -36.37814470	     32.75145058	     90.70472103	    102.30117910	     86.93883719	    -27.07829892	     42.28722398	     72.54843971	     94.80240921
      3.02500000	    -15.11967929	      1.20778790	     -1.90210040	      0.14849171	      0.53656120	     -0.09074276	     92.69707526	     -7.08053084	      7.96177040	    115.32495351	      2.01280015	     40.09846256	     -0.95737104	     -7.49999987	     96.87365775	     -6.68662344	      3.99032599	    118.60920935	      2.07012123	     33.08256361	      3.76250582	     -7.49999987	    -49.16592488	      1.36138036	      0.52036517	     75.46916730	    -36.09032983	     33.30482246	     89.82894040	    101.85619250	     87.50548068	    -26.79360237	     43.32389388	     71.96238662	     94.47781397
      3.02916670	    -15.20259986	      1.18348089	     -1.80889401	      0.15061719	      0.53785931	     -0.08835713	     92.53332939	     -6.84404744	      7.86840481	    115.48721482	      2.01563214	     40.24980160	     -1.18367223	     -7.49999987	     96.78717228	     -6.86461008	      4.17059984	    118.65641732	      2.07094516	     33.08636120	      4.13519202	     -7.49999987	    -49.01849961	      1.31452370	      0.41382215	     75.79092385	    -35.77609575	     33.74950474	     89.17296995	    100.45323894	     88.13611572	    -26.62987390	     44.40137275	     71.78829063	     93.20033608
      3.03333330	    -15.19033852	      1.07203945	     -1.77404108	      0.15109511	      0.53777869	     -0.08854424	     92.40289250	     -6.74329232	      7.63038735	    115.60782611	      2.01773721	     40.28688138	     -1.43531234	     -7.49999987	     96.67184990	     -6.95668464	      4.41076428	    118.75759706	      2.07271108	     33.08479296	      4.31014429	     -7.49999987	    -48.98259195	      1.29590195	      0.29628643	     76.07107321	    -35.36955758	     33.82331780	     88.60389178	     99.64928604	     88.68220681	    -26.41105053	     45.04102182	     71.49513858	     92.45241664
      3.03750000	    -15.24454932	      0.88813263	     -1.71686376	      0.15575147	      0.53561481	     -0.08866199	     92.27928547	     -6.73235290	      7.39216838	    115.96190613	      2.02391707	     40.43896953	     -1.94973439	     -7.49999987	     96.73702980	     -7.05581961	      4.74761448	    119.04820152	      2.07778309	     33.15382716	      4.41822938	     -7.49999987	    -48.80917104	      1.27372182	      0.39520315	     76.26853197	    -35.29296259	     33.76652704	     87.82789465	    100.42594007	     89.34350712	    -25.93614078	     45.98073163	     71.20218981	     93.36216305
      3.04166670	    -15.22672152	      0.91562595	     -1.60346171	      0.15572622	      0.53547790	     -0.08588930	     92.15488266	     -6.56050553	      7.33028271	    116.14243807	      2.02706795	     40.63527696	     -2.33719551	     -7.49999987	     96.67825934	     -7.07587748	      4.87221200	    119.19247639	      2.08030116	     33.26051724	      4.76367782	     -7.49999987	    -48.69410782	      1.04691888	      0.32758295	     76.03195958	    -35.17908282	     32.88798967	     87.80950068	    104.73557609	     90.11132715	    -25.31484998	     46.51843251	     70.60585861	     97.25146764
      3.04583330	    -15.24174367	      0.83662048	     -1.50623988	      0.15973416	      0.53274738	     -0.08641248	     92.15136579	     -6.41504344	      7.34218857	    116.56622742	      2.03446447	     40.97250397	     -2.58375989	     -7.49999987	     96.76043132	     -7.11214283	      5.09815767	    119.60766772	      2.08754761	     33.25718602	      4.83438792	     -7.49999987	    -48.47765822	      1.08513200	      0.22461048	     76.24127034	    -35.00422825	     32.86644588	     87.75922070	    104.72611437	     90.36568926	    -25.02526279	     46.54316416	     70.65219253	     97.27431803
      3.05000000	    -15.24168082	      0.59996952	     -1.52093817	      0.15931226	      0.53601682	     -0.08502400	     91.64369480	     -5.93089473	      7.01191087	    116.43918492	      2.03224716	     41.26741840	     -3.30963158	     -7.49999987	     96.69451488	     -7.37795331	      5.44536430	    119.66503664	      2.08854889	     33.32650615	      5.54761578	     -7.49999987	    -48.21915181	      1.10892774	      0.16981326	     76.63987814	    -34.52667028	     33.26871423	     86.49874226	    103.31026193	     91.10625430	    -24.81757564	     47.81620090	     69.89364974	     96.02970044
      3.05416670	    -15.27123417	      0.37892723	     -1.50017916	      0.16398637	      0.53311692	     -0.08586313	     91.45171903	     -5.70619770	      6.90716269	    116.72903805	      2.03730605	     41.57477371	     -3.60983307	     -7.49999987	     96.67141813	     -7.42076575	      5.73658119	    119.91112685	      2.09284397	     33.64675615	      5.86606653	     -7.49999987	    -47.85344828	      1.21070554	      0.14289261	     76.85718557	    -34.20913378	     33.21857946	     85.87236885	    103.53285365	     91.49856463	    -24.39626447	     48.22173362	     69.28216831	     96.43316700
      3.05833330	    -15.13355583	      0.26478454	     -1.41187873	      0.16625769	      0.53394733	     -0.08748125	     91.12771278	     -5.62449286	      6.90752156	    117.00108174	      2.04205410	     41.77557571	     -3.88289598	     -7.49999987	     96.40662011	     -7.32560528	      5.75573073	    120.12017609	      2.09649257	     33.83918419	      5.83926485	     -7.49999987	    -47.71306815	      1.24969097	      0.02668092	     77.24209559	    -34.01093370	     33.36482557	     85.32062674	    103.62106274	     92.26017997	    -23.92229778	     49.16653874	     68.57475555	     96.71388877
      3.06250000	    -15.19415494	      0.11460866	     -1.46124166	      0.17373455	      0.53259687	     -0.08804697	     91.01393019	     -5.56872016	      6.95936484	    117.47640893	      2.05035013	     41.84256327	     -3.95245516	     -7.49999987	     96.27711321	     -7.32598773	      5.91641351	    120.47088040	      2.10261352	     34.03620396	      5.86680821	     -7.49999987	    -47.33409426	      1.38582772	     -0.00399762	     77.35116536	    -33.87714789	     33.33059924	     85.26792614	    103.64270134	     92.37724330	    -23.66367010	     49.15236164	     68.62503942	     96.74269356
